<svg t="1734888267010" class="icon" viewBox="0 0 1024 1024" version="1.1" xmlns="http://www.w3.org/2000/svg" p-id="6121" width="200" height="200"><path d="M240 512h64c9.6 0 16-6.4 16-16v-32c0-9.6-6.4-16-16-16h-64c-9.6 0-16 6.4-16 16v32c0 9.6 6.4 16 16 16z m160 0h384c9.6 0 16-6.4 16-16v-32c0-9.6-6.4-16-16-16H400c-9.6 0-16 6.4-16 16v32c0 9.6 6.4 16 16 16z m384 256h-64c-9.6 0-16 6.4-16 16v32c0 9.6 6.4 16 16 16h64c9.6 0 16-6.4 16-16v-32c0-9.6-6.4-16-16-16z" fill="#333333" p-id="6122"></path><path d="M896 128H768V96c0-16-12.8-32-32-32s-32 12.8-32 32v32H320V96c0-16-12.8-32-32-32s-32 12.8-32 32v32H128c-35.2 0-64 28.8-64 64v704c0 35.2 28.8 64 64 64h768c35.2 0 64-28.8 64-64V192c0-35.2-28.8-64-64-64z m0 736c0 19.2-12.8 32-32 32H160c-19.2 0-32-12.8-32-32V384h768v480z m0-544H128v-96c0-19.2 12.8-32 32-32h96v32c0 16 12.8 32 32 32s32-12.8 32-32v-32h384v32c0 16 12.8 32 32 32s32-12.8 32-32v-32h96c19.2 0 32 12.8 32 32v96z" fill="#333333" p-id="6123"></path><path d="M240 832h384c9.6 0 16-6.4 16-16v-32c0-9.6-6.4-16-16-16H240c-9.6 0-16 6.4-16 16v32c0 9.6 6.4 16 16 16z m0-160h544c9.6 0 16-6.4 16-16v-32c0-9.6-6.4-16-16-16H240c-9.6 0-16 6.4-16 16v32c0 9.6 6.4 16 16 16z" fill="#333333" p-id="6124"></path></svg>