<svg t="1734887829695" class="icon" viewBox="0 0 1024 1024" version="1.1" xmlns="http://www.w3.org/2000/svg" p-id="4640" width="200" height="200"><path d="M896 160H128c-35.2 0-64 28.8-64 64v576c0 35.2 28.8 64 64 64h768c35.2 0 64-28.8 64-64V224c0-35.2-28.8-64-64-64z m-32 64L560 502.4c-25.6 22.4-67.2 22.4-96 0L160 224h704z m-736 64l224 220.8L128 736V288z m32 512l243.2-233.6C432 592 470.4 608 512 608c41.6 0 80-16 108.8-41.6L864 800H160z m736-64L672 508.8 896 288v448z" fill="#333333" p-id="4641"></path></svg>