<svg t="1736038732480" class="icon" viewBox="0 0 1024 1024" version="1.1" xmlns="http://www.w3.org/2000/svg" p-id="16049" width="200" height="200"><path d="M512 0C230.4 0 0 230.4 0 512s230.4 512 512 512 512-230.4 512-512S793.6 0 512 0z m0 960C262.4 960 64 761.6 64 512S262.4 64 512 64s448 198.4 448 448-198.4 448-448 448z" p-id="16050" fill="#666666"></path><path d="M198.4 435.2h192c19.2 0 32-12.8 32-32s-12.8-32-32-32h-192c-19.2 0-32 12.8-32 32 0 12.8 12.8 32 32 32zM198.4 563.2h192c19.2 0 32-12.8 32-32s-12.8-32-32-32h-192c-19.2 0-32 12.8-32 32 0 12.8 12.8 32 32 32zM390.4 627.2h-192c-19.2 0-32 12.8-32 32s12.8 32 32 32h192c19.2 0 32-12.8 32-32s-12.8-32-32-32zM857.6 691.2c0-70.4-38.4-134.4-102.4-166.4 19.2-25.6 38.4-51.2 38.4-89.6 0-70.4-57.6-128-128-128s-128 57.6-128 128c0 32 12.8 64 38.4 89.6-64 25.6-102.4 89.6-102.4 166.4 0 19.2 12.8 32 32 32s32-12.8 32-32c0-70.4 57.6-128 128-128s128 57.6 128 128c0 19.2 12.8 32 32 32s32-19.2 32-32z m-192-192c-38.4 0-64-25.6-64-64s25.6-64 64-64 64 25.6 64 64c0 32-25.6 64-64 64z" p-id="16051" fill="#666666"></path></svg>