<svg t="1736567007500" class="icon" viewBox="0 0 1024 1024" version="1.1" xmlns="http://www.w3.org/2000/svg" p-id="7626" width="200" height="200"><path d="M850.212571 342.326857H590.811429c12.306286-45.312 18.56-85.577143 18.56-121.033143 0-80.420571-70.363429-157.458286-137.691429-147.236571-59.373714 9.014857-87.698286 61.330286-87.698286 128.530286v60.708571c0 77.878857-57.014857 144.292571-129.517714 151.606857l-115.328-0.201143C102.674286 414.701714 73.142857 445.568 73.142857 483.675429V881.92C73.142857 920.009143 102.674286 950.857143 139.117714 950.857143h638.866286c48.347429 0 89.837714-35.913143 98.852571-85.577143l72.228572-398.226286c10.313143-57.069714-25.545143-112.073143-80.146286-122.88a94.464 94.464 0 0 0-18.706286-1.846857zM135.826286 881.901714V483.675429c0-1.901714 1.481143-3.437714 3.291428-3.437715h75.081143v405.138286H139.117714a3.419429 3.419429 0 0 1-3.291428-3.474286z m751.652571-427.044571l-72.210286 398.244571c-3.419429 18.706286-19.072 32.256-37.266285 32.256H276.900571V477.348571c98.358857-19.638857 169.563429-109.421714 169.764572-214.070857v-60.690285c0-38.454857 11.812571-60.324571 34.011428-63.652572 26.496-4.022857 65.993143 39.241143 65.993143 82.395429 0 38.198857-9.325714 86.016-28.269714 143.049143-5.686857 17.097143 2.980571 35.766857 19.328 41.691428 3.328 1.188571 6.784 1.810286 10.294857 1.810286h302.189714c20.955429 0 37.924571 17.755429 37.924572 39.625143 0 2.486857-0.201143 4.937143-0.658286 7.350857z" fill="#666666" p-id="7627"></path></svg>