<svg t="1736010402380" class="icon" viewBox="0 0 1864 1024" version="1.1" xmlns="http://www.w3.org/2000/svg" p-id="15054" width="200" height="200"><path d="M341.218835 19.108255v985.439997h-111.919778V157.074404A513.534347 513.534347 0 0 1 0 292.310802v-113.170913a576.773572 576.773572 0 0 0 136.487534-60.736953A511.828253 511.828253 0 0 0 253.866814 18.994515z" fill="#666666" p-id="15055"></path><path d="M1016.490911 78.707811a269.107922 269.107922 0 0 1 87.352022 208.370969 336.555511 336.555511 0 0 1-95.427535 231.801329 1320.630633 1320.630633 0 0 1-202.00155 159.235457 482.824652 482.824652 0 0 0-212.920554 226.341827h511.828254v100.773296H455.640885a354.64011 354.64011 0 0 1 96.906149-244.198946 1209.734511 1209.734511 0 0 1 211.555678-175.272742 1290.262156 1290.262156 0 0 0 152.752299-122.838781 259.667534 259.667534 0 0 0 75.181883-176.637617 181.300941 181.300941 0 0 0-53.230138-139.331025A209.849584 209.849584 0 0 0 790.035344 97.247368a180.618504 180.618504 0 0 0-154.230914 69.039944 298.566481 298.566481 0 0 0-60.168255 197.338227h-111.806038a373.862104 373.862104 0 0 1 90.991689-263.534681 307.096952 307.096952 0 0 1 238.853185-99.40842 319.38083 319.38083 0 0 1 222.8159 78.025373z" fill="#666666" p-id="15056"></path><path d="M1758.18692 71.769695a245.791301 245.791301 0 0 1 84.622271 195.859612 214.057949 214.057949 0 0 1-159.235457 220.768586 257.620221 257.620221 0 0 1 131.028033 84.167313 216.105262 216.105262 0 0 1 49.135512 144.904265 284.917728 284.917728 0 0 1-92.811523 219.403712 347.929473 347.929473 0 0 1-245.677562 86.897063 352.592797 352.592797 0 0 1-226.569306-71.769695 346.337118 346.337118 0 0 1-116.014404-252.501938h113.739612a228.730359 228.730359 0 0 0 76.433019 176.637617 258.643877 258.643877 0 0 0 320.745705-9.667867 198.134404 198.134404 0 0 0 58.68964-144.904266 172.88421 172.88421 0 0 0-56.869806-137.966149 234.986038 234.986038 0 0 0-158.32554-48.339335h-79.617728V446.996674h75.068144a223.270858 223.270858 0 0 0 148.771412-44.130969 161.623988 161.623988 0 0 0 51.865263-128.298282 166.514792 166.514792 0 0 0-50.500388-128.298282 251.137063 251.137063 0 0 0-301.63745 4.094626 236.578393 236.578393 0 0 0-66.878892 153.093517h-111.46482a323.361716 323.361716 0 0 1 103.730526-223.498337 314.376287 314.376287 0 0 1 225.204432-79.617728 338.716564 338.716564 0 0 1 226.569307 71.428476z" fill="#666666" p-id="15057"></path></svg>