<svg t="1736039387528" class="icon" viewBox="0 0 1024 1024" version="1.1" xmlns="http://www.w3.org/2000/svg" p-id="29063" width="200" height="200"><path d="M832 620c17.673 0 32 14.327 32 32v252a8 8 0 0 1-8 8h-48a8 8 0 0 1-8-8V684H224v220a8 8 0 0 1-8 8h-48a8 8 0 0 1-8-8V652c0-17.673 14.327-32 32-32zM232 476a8 8 0 0 1 8 8v56a8 8 0 0 1-8 8H120a8 8 0 0 1-8-8v-56a8 8 0 0 1 8-8h112z m224 0a8 8 0 0 1 8 8v56a8 8 0 0 1-8 8H344a8 8 0 0 1-8-8v-56a8 8 0 0 1 8-8h112z m224 0a8 8 0 0 1 8 8v56a8 8 0 0 1-8 8H568a8 8 0 0 1-8-8v-56a8 8 0 0 1 8-8h112z m224 0a8 8 0 0 1 8 8v56a8 8 0 0 1-8 8H792a8 8 0 0 1-8-8v-56a8 8 0 0 1 8-8h112zM216 112a8 8 0 0 1 8 8v220h576V120a8 8 0 0 1 8-8h48a8 8 0 0 1 8 8v252c0 17.673-14.327 32-32 32H192c-17.673 0-32-14.327-32-32V120a8 8 0 0 1 8-8h48z" p-id="29064" fill="#666666"></path></svg>