<svg t="1734889732552" class="icon" viewBox="0 0 1024 1024" version="1.1" xmlns="http://www.w3.org/2000/svg" p-id="11170" width="200" height="200"><path d="M912.497778 0v108.942222H1024z" fill="#999999" p-id="11171"></path><path d="M922.737778 370.688a36.977778 36.977778 0 0 1-36.807111 36.807111h-206.734223a36.977778 36.977778 0 0 1-36.864-36.807111v-5.916444a36.977778 36.977778 0 0 1 36.864-36.977778h206.734223a36.977778 36.977778 0 0 1 36.807111 36.977778v5.916444z m0 218.055111a36.977778 36.977778 0 0 1-36.807111 36.864h-206.734223a36.977778 36.977778 0 0 1-36.864-36.864v-5.916444a36.977778 36.977778 0 0 1 36.864-36.864h206.734223a36.977778 36.977778 0 0 1 36.807111 36.864v5.916444z m0 218.112a36.977778 36.977778 0 0 1-36.807111 36.807111h-206.734223a36.977778 36.977778 0 0 1-36.864-36.807111v-5.973333a36.977778 36.977778 0 0 1 36.864-36.864h206.734223a36.977778 36.977778 0 0 1 36.807111 36.864v5.973333z m-28.728889-661.617778a18.318222 18.318222 0 0 1-18.602667-18.090666V0h-260.039111C574.350222 0 541.013333 32.540444 541.013333 72.647111v878.705778c0 40.106667 33.28 72.647111 74.296889 72.647111h334.392889c40.96 0 74.24-32.540444 74.24-72.647111V145.237333h-129.991111zM371.484444 0v108.942222h111.502223z" fill="#999999" p-id="11172"></path><path d="M381.667556 370.688a36.977778 36.977778 0 0 1-36.807112 36.807111H138.126222a36.977778 36.977778 0 0 1-36.864-36.807111v-5.916444a36.977778 36.977778 0 0 1 36.864-36.977778h206.734222a36.977778 36.977778 0 0 1 36.807112 36.977778v5.916444z m0 218.055111a36.977778 36.977778 0 0 1-36.807112 36.864H138.126222a36.977778 36.977778 0 0 1-36.864-36.864v-5.916444a36.977778 36.977778 0 0 1 36.864-36.864h206.734222a36.977778 36.977778 0 0 1 36.807112 36.864v5.916444z m0 218.112a36.977778 36.977778 0 0 1-36.807112 36.807111H138.126222a36.977778 36.977778 0 0 1-36.864-36.807111v-5.973333a36.977778 36.977778 0 0 1 36.864-36.864h206.734222a36.977778 36.977778 0 0 1 36.807112 36.864v5.973333z m-28.728889-661.617778a18.318222 18.318222 0 0 1-18.602667-18.090666V0H74.296889C33.28 0 0 32.540444 0 72.647111v878.705778C0 991.459556 33.28 1024 74.296889 1024h334.392889c40.96 0 74.24-32.540444 74.24-72.647111V145.237333H352.938667z" fill="#999999" p-id="11173"></path></svg>