<svg t="1736041808032" class="icon" viewBox="0 0 1024 1024" version="1.1" xmlns="http://www.w3.org/2000/svg" p-id="36162" width="200" height="200"><path d="M188.8 92.8c35.2-25.6 76.8-32 118.4-25.6 41.6 9.6 76.8 35.2 96 70.4l57.6 99.2c28.8 51.2 16 118.4-32 153.6l-16 9.6 3.2 9.6c12.8 25.6 25.6 51.2 41.6 76.8l9.6 12.8c22.4 32 48 57.6 80 83.2H544l16-9.6c48-35.2 112-28.8 153.6 12.8l3.2 3.2 76.8 83.2c28.8 32 41.6 73.6 38.4 115.2-3.2 41.6-25.6 80-60.8 105.6L720 928c-57.6 41.6-131.2 44.8-192 9.6-124.8-70.4-224-156.8-300.8-262.4C150.4 569.6 96 448 67.2 310.4c-12.8-70.4 12.8-140.8 70.4-182.4l51.2-35.2z m102.4 38.4c-22.4-6.4-48 0-67.2 12.8L176 179.2c-38.4 28.8-54.4 70.4-44.8 115.2 28.8 131.2 76.8 243.2 147.2 342.4 70.4 99.2 166.4 179.2 281.6 246.4 38.4 22.4 86.4 19.2 121.6-6.4l51.2-35.2c19.2-12.8 32-35.2 35.2-57.6 3.2-22.4-6.4-48-22.4-64l-76.8-83.2c-19.2-19.2-51.2-22.4-73.6-6.4l-16 12.8c-22.4 16-54.4 16-73.6-3.2-35.2-28.8-64-60.8-89.6-96-25.6-35.2-48-73.6-64-115.2-9.6-25.6-3.2-54.4 19.2-73.6l16-12.8c22.4-16 28.8-48 16-70.4l-57.6-99.2c-9.6-22.4-28.8-38.4-54.4-41.6zM608 64c195.2 0 352 156.8 352 352 0 60.8-16 118.4-41.6 169.6-9.6 16-28.8 22.4-44.8 12.8-16-9.6-22.4-28.8-12.8-44.8 22.4-41.6 35.2-89.6 35.2-137.6 0-160-128-288-288-288-19.2 0-32-12.8-32-32s12.8-32 32-32z m0 160c105.6 0 192 86.4 192 192 0 28.8-6.4 57.6-19.2 83.2-6.4 16-25.6 22.4-41.6 16-16-6.4-22.4-25.6-16-41.6 9.6-16 12.8-35.2 12.8-54.4 0-70.4-57.6-128-128-128-19.2 0-32-12.8-32-32S588.8 224 608 224z" fill="#666666" p-id="36163"></path></svg>