<svg t="1734889090169" class="icon" viewBox="0 0 1024 1024" version="1.1" xmlns="http://www.w3.org/2000/svg" p-id="6228" width="200" height="200"><path d="M933.11 293.94c-0.37 0-0.75-0.01-1.12-0.02-20.2-0.61-36.08-17.47-35.48-37.67 1.13-37.46-8.15-66.72-27.58-86.96-17.51-18.25-40.79-27.1-58.88-31.39-16.53-3.92-28.18-18.68-28.14-35.67 0.06-23.52 22.01-40.94 44.89-35.5 28.34 6.74 64.99 21.02 94.3 51.22 33.97 35.01 50.31 82.28 48.56 140.49-0.59 19.84-16.85 35.5-36.55 35.5zM90.89 302.01c-19.7 0-35.96-15.67-36.56-35.49-1.75-58.21 14.59-105.48 48.56-140.49 29.31-30.21 65.97-44.48 94.3-51.22 22.88-5.44 44.82 11.98 44.89 35.5 0.05 16.99-11.61 31.75-28.14 35.67-18.09 4.29-41.38 13.14-58.88 31.39-19.42 20.24-28.7 49.5-27.58 86.96 0.61 20.2-15.28 37.07-35.48 37.67-0.36 0.01-0.74 0.01-1.11 0.01z" p-id="6229"></path><path d="M509.85 943.31c-55.6 0-109.56-11-160.37-32.69-49.04-20.93-93.06-50.89-130.85-89.04-37.77-38.12-67.42-82.52-88.14-131.95-21.45-51.18-32.32-105.52-32.32-161.51 0-48.62 8.26-96.25 24.56-141.57 15.75-43.81 38.61-84.4 67.93-120.67 58.85-72.78 141.12-123.75 231.63-143.54 19.75-4.31 39.25 8.19 43.56 27.94 4.31 19.74-8.19 39.25-27.94 43.56-154.45 33.76-266.56 174.35-266.56 334.28 0 188.58 151.85 342.01 338.5 342.01 158.14 0 293.68-108.48 329.62-263.81 4.56-19.69 24.22-31.96 43.9-27.4 19.69 4.56 31.96 24.21 27.4 43.9-20.75 89.68-71.58 171.02-143.13 229.04-35.77 29-75.72 51.6-118.75 67.17-44.54 16.11-91.32 24.28-139.04 24.28z" p-id="6230"></path><path d="M889.24 548.4H527.87c-16.84 0-30.49-13.65-30.49-30.49V153.17c0-16.84 13.65-30.49 30.49-30.49 52.92 0 104.28 10.47 152.63 31.11 46.67 19.93 88.58 48.44 124.55 84.75 35.96 36.29 64.19 78.55 83.91 125.61 20.42 48.72 30.77 100.45 30.77 153.76 0 16.84-13.65 30.49-30.49 30.49z m-330.88-60.98h299.02C842.99 327.5 716.63 199.74 558.36 185.07v302.35z" p-id="6231"></path><path d="M527.88 481.86c-4.59 0-9.19-1.03-13.46-3.14a30.503 30.503 0 0 1-17.03-27.36V284.84c0-10.17 5.08-19.68 13.53-25.34l148.56-99.45c14-9.37 32.93-5.62 42.3 8.38 9.37 13.99 5.62 32.93-8.38 42.3l-135.03 90.39v88.3l203.39-156.53c13.34-10.27 32.49-7.78 42.76 5.57 10.27 13.35 7.78 32.49-5.57 42.76L546.48 475.54a30.51 30.51 0 0 1-18.6 6.32zM643.92 548.41c-9.66 0-19.16-4.58-25.08-13.11-9.6-13.84-6.17-32.84 7.67-42.44l214.11-148.58c13.84-9.6 32.83-6.17 42.44 7.67 9.6 13.84 6.17 32.84-7.67 42.44L661.27 542.96a30.341 30.341 0 0 1-17.35 5.45z" p-id="6232"></path><path d="M228.39 963.3c-8.95 0-17.92-3.26-24.97-9.85-14.77-13.79-15.56-36.95-1.76-51.72l76.28-81.66c13.79-14.77 36.95-15.56 51.72-1.76 14.77 13.79 15.56 36.95 1.76 51.72l-76.28 81.66c-7.2 7.71-16.96 11.61-26.75 11.61z" p-id="6233"></path><path d="M819.46 963.3c-9.79 0-19.54-3.9-26.75-11.62l-76.27-81.66c-13.79-14.77-13-37.92 1.77-51.72 14.77-13.79 37.92-13 51.72 1.77l76.27 81.66c13.79 14.77 13 37.92-1.77 51.72a36.483 36.483 0 0 1-24.97 9.85z" p-id="6234"></path></svg>