<svg t="1730624766779" class="icon" viewBox="0 0 1024 1024" version="1.1" xmlns="http://www.w3.org/2000/svg" p-id="12477" width="200" height="200"><path d="M895.999981 231.93604L765.849587 76.800047 732.159989 36.556849A102.399995 102.399995 0 0 0 653.619193 0.000051H153.600018a102.707195 102.707195 0 0 0-102.399995 102.399995v819.199959a102.707195 102.707195 0 0 0 102.399995 102.399995h716.799964a102.707195 102.707195 0 0 0 102.399995-102.399995V360.704033a102.399995 102.399995 0 0 0-23.961599-65.843197z m0 664.063966a51.199997 51.199997 0 0 1-51.199998 51.199998H179.200017a51.199997 51.199997 0 0 1-51.199998-51.199998V128.000045a51.199997 51.199997 0 0 1 51.199998-51.199998h462.540777a51.199997 51.199997 0 0 1 39.219198 18.278399l203.059189 242.073588a51.199997 51.199997 0 0 1 11.9808 32.921599z" fill="#00C080" p-id="12478"></path><path d="M256.000013 473.600028m38.399998 0l435.199978 0q38.399998 0 38.399998 38.399998l0 0q0 38.399998-38.399998 38.399998l-435.199978 0q-38.399998 0-38.399998-38.399998l0 0q0-38.399998 38.399998-38.399998Z" fill="#00C080" p-id="12479"></path><path d="M256.000013 691.200017m38.399998 0l435.199978 0q38.399998 0 38.399998 38.399998l0 0q0 38.399998-38.399998 38.399998l-435.199978 0q-38.399998 0-38.399998-38.399998l0 0q0-38.399998 38.399998-38.399998Z" fill="#00C080" p-id="12480"></path><path d="M256.000013 256.000038m38.399998 0l307.199985 0q38.399998 0 38.399998 38.399998l0 0q0 38.399998-38.399998 38.399999l-307.199985 0q-38.399998 0-38.399998-38.399999l0 0q0-38.399998 38.399998-38.399998Z" fill="#00C080" p-id="12481"></path></svg>