<svg t="1742854644472" class="icon" viewBox="0 0 1024 1024" version="1.1" xmlns="http://www.w3.org/2000/svg" p-id="5282" width="200" height="200"><path d="M456.946237 539.526882a27.526882 27.526882 0 0 1 27.526881 27.526881v341.333334a27.526882 27.526882 0 0 1-27.526881 27.526881H115.612903a27.526882 27.526882 0 0 1-27.526881-27.526881v-341.333334a27.526882 27.526882 0 0 1 27.526881-27.526881h341.333334z m451.44086 0a27.526882 27.526882 0 0 1 27.526881 27.526881v341.333334a27.526882 27.526882 0 0 1-27.526881 27.526881h-341.333334a27.526882 27.526882 0 0 1-27.526881-27.526881v-341.333334a27.526882 27.526882 0 0 1 27.526881-27.526881h341.333334z m-489.978495 66.064516H154.150538v264.258064h264.258064v-264.258064z m451.44086 0h-264.258064v264.258064h264.258064v-264.258064zM456.946237 88.086022a27.526882 27.526882 0 0 1 27.526881 27.526881v341.333334a27.526882 27.526882 0 0 1-27.526881 27.526881H115.612903a27.526882 27.526882 0 0 1-27.526881-27.526881V115.612903a27.526882 27.526882 0 0 1 27.526881-27.526881h341.333334z m451.44086 0a27.526882 27.526882 0 0 1 27.526881 27.526881v341.333334a27.526882 27.526882 0 0 1-27.526881 27.526881h-341.333334a27.526882 27.526882 0 0 1-27.526881-27.526881V115.612903a27.526882 27.526882 0 0 1 27.526881-27.526881h341.333334zM418.408602 154.150538H154.150538v264.258064h264.258064V154.150538z m451.44086 0h-264.258064v264.258064h264.258064V154.150538z" fill="#3A3A3A" p-id="5283"></path></svg>