<svg t="1753200454336" class="icon" viewBox="0 0 1241 1024" version="1.1" xmlns="http://www.w3.org/2000/svg" p-id="12759" width="200" height="200"><path d="M1028.033939 4.59248534a66.839273 66.839273 0 0 1 0 94.518303l-253.083151 253.052121-68.049455 8.005818a31.030303 31.030303 0 0 1-34.443636-34.443636l7.974788-68.080485 253.083151-253.052121a66.839273 66.839273 0 0 1 94.518303 0zM497.322667 874.03054534a46.545455 46.545455 0 1 1 0 93.090909 46.545455 46.545455 0 0 1 0-93.090909z m-310.303031 0h155.151516a46.545455 46.545455 0 0 1 0 93.090909h-155.151516a46.545455 46.545455 0 0 1 0-93.090909zM431.383273 190.06060634a46.545455 46.545455 0 0 1 0 93.090909H233.285818a124.679758 124.679758 0 0 0 0 249.359515h772.344243c120.087273 0 217.677576 96.814545 218.670545 216.901818a215.877818 215.877818 0 0 1-214.109091 217.615515h-357.469091a46.545455 46.545455 0 1 1 0-93.090909h355.700364c68.825212-0.527515 123.345455-55.978667 122.786909-123.810909a125.579636 125.579636 0 0 0-125.579636-124.524606H233.285818a217.770667 217.770667 0 1 1 0-435.541333h198.097455z" fill="#1677ff" p-id="12760"></path></svg>