<svg t="1753200299471" class="icon" viewBox="0 0 1024 1024" version="1.1" xmlns="http://www.w3.org/2000/svg" p-id="9478" width="200" height="200"><path d="M512 1024C233.6 1024 0 790.4 0 512 0 220.8 227.2 0 528 0 838.4 0 1024 233.6 1024 460.8c0 83.2-28.8 156.8-80 208-57.6 57.6-147.2 89.6-233.6 86.4-83.2 0-128 12.8-128 38.4 0 16 3.2 19.2 16 28.8 16 12.8 38.4 35.2 38.4 83.2 0 67.2-54.4 118.4-124.8 118.4z m16-960C265.6 64 64 256 64 512c0 236.8 208 448 448 448 35.2 0 57.6-22.4 57.6-51.2 0-19.2-6.4-25.6-19.2-35.2-16-12.8-38.4-32-38.4-76.8 0-105.6 140.8-105.6 192-105.6 73.6 0 144-25.6 188.8-67.2 41.6-41.6 60.8-96 60.8-163.2C960 265.6 796.8 64 528 64z" fill="#1677ff" p-id="9479"></path><path d="M780.8 585.6c-67.2 0-118.4-54.4-118.4-118.4s54.4-118.4 118.4-118.4 118.4 54.4 118.4 118.4-51.2 118.4-118.4 118.4z m0-172.8c-28.8 0-54.4 25.6-54.4 54.4s25.6 54.4 54.4 54.4 54.4-25.6 54.4-54.4-22.4-54.4-54.4-54.4zM595.2 364.8c-67.2 0-118.4-54.4-118.4-118.4S531.2 128 595.2 128s118.4 54.4 118.4 118.4-54.4 118.4-118.4 118.4z m0-172.8c-28.8 0-54.4 25.6-54.4 54.4s25.6 54.4 54.4 54.4 54.4-25.6 54.4-54.4S624 192 595.2 192zM310.4 451.2c-67.2 0-118.4-54.4-118.4-118.4s54.4-118.4 118.4-118.4 118.4 54.4 118.4 118.4-51.2 118.4-118.4 118.4z m0-172.8c-28.8 0-54.4 22.4-54.4 54.4 0 28.8 25.6 54.4 54.4 54.4 28.8 0 54.4-25.6 54.4-54.4 0-32-25.6-54.4-54.4-54.4zM265.6 742.4c-67.2 0-118.4-54.4-118.4-118.4s54.4-118.4 118.4-118.4 118.4 54.4 118.4 118.4-54.4 118.4-118.4 118.4z m0-176c-28.8 0-54.4 25.6-54.4 54.4s25.6 54.4 54.4 54.4 54.4-25.6 54.4-54.4-25.6-54.4-54.4-54.4z" fill="#1677ff" p-id="9480"></path></svg>